<?xml version="1.0" standalone="no"?>
<!DOCTYPE svg PUBLIC "-//W3C//DTD SVG 20010904//EN"
 "http://www.w3.org/TR/2001/REC-SVG-20010904/DTD/svg10.dtd">
<svg version="1.0" xmlns="http://www.w3.org/2000/svg"
 width="2400.000000pt" height="2400.000000pt" viewBox="0 0 2400.000000 2400.000000"
 preserveAspectRatio="xMidYMid meet">
<metadata>
Created by potrace 1.14, written by Peter Selinger 2001-2017
</metadata>
<g transform="translate(0.000000,2400.000000) scale(0.100000,-0.100000)"
fill="#000000" stroke="none">
<path d="M11893 13820 c-47 -20 -58 -55 -58 -183 l0 -119 29 -25 c27 -23 35
-25 119 -21 78 3 91 6 107 26 41 51 35 262 -10 306 -16 16 -35 21 -93 23 -39
2 -82 -1 -94 -7z"/>
<path d="M8079 13711 c-23 -24 -29 -38 -29 -74 0 -67 21 -86 105 -97 39 -5
123 -9 188 -10 l117 0 0 -664 0 -665 -211 -3 -211 -3 -24 -28 c-17 -20 -24
-40 -24 -70 0 -54 21 -83 68 -97 50 -14 1024 -14 1074 0 21 6 42 19 48 30 17
32 12 115 -9 141 -19 24 -21 24 -255 27 l-236 3 0 754 0 754 -22 15 c-19 14
-64 16 -286 16 l-264 0 -29 -29z"/>
<path d="M9919 13581 l-29 -29 0 -196 0 -196 -117 0 c-170 0 -207 -14 -213
-80 -4 -48 0 -68 19 -91 18 -23 27 -24 163 -29 l143 -5 5 -345 c5 -310 8 -350
25 -393 43 -107 133 -187 250 -223 72 -22 230 -29 322 -14 95 15 277 72 356
112 95 47 124 124 71 187 -39 47 -84 43 -251 -23 -168 -65 -222 -78 -318 -78
-58 0 -85 5 -122 23 -100 50 -113 107 -113 487 l0 271 301 3 301 3 19 24 c30
36 26 111 -7 142 l-26 24 -293 3 -293 3 -4 187 c-4 242 -13 261 -121 262 -29
0 -46 -7 -68 -29z"/>
<path d="M16713 13586 l-28 -24 -3 -200 -3 -200 -139 -4 c-130 -3 -140 -4
-164 -27 -36 -34 -37 -111 -1 -146 23 -24 29 -25 165 -25 l140 0 0 -302 c0
-167 4 -329 10 -361 36 -225 216 -340 505 -324 171 9 425 90 497 158 33 31 38
42 38 81 0 36 -6 51 -26 72 -38 37 -84 34 -212 -15 -181 -70 -259 -90 -347
-91 -128 -1 -192 35 -222 126 -13 42 -17 108 -21 354 l-4 302 294 0 c326 0
327 0 348 65 9 26 9 44 0 70 -21 63 -34 65 -355 65 l-285 0 0 168 c-1 247 -14
282 -111 282 -36 0 -55 -6 -76 -24z"/>
<path d="M18641 13260 c-158 -22 -285 -84 -391 -190 -130 -130 -181 -263 -181
-470 0 -198 53 -334 176 -455 155 -154 377 -212 653 -171 183 27 421 116 479
177 75 82 28 190 -76 176 -20 -2 -102 -32 -181 -65 -187 -77 -271 -96 -404
-90 -114 6 -183 28 -257 82 -75 56 -130 157 -141 261 l-3 30 520 5 c286 3 528
9 538 14 66 32 62 219 -9 360 -78 156 -229 274 -409 321 -75 19 -230 27 -314
15z m234 -206 c141 -36 253 -149 280 -281 l7 -33 -416 0 c-472 0 -435 -8 -389
88 33 70 121 160 188 192 100 49 226 62 330 34z"/>
<path d="M4968 13245 c-230 -56 -416 -238 -475 -465 -22 -87 -22 -254 1 -340
82 -304 375 -500 713 -476 232 16 508 154 558 278 33 82 -7 148 -89 148 -44 0
-77 -17 -158 -81 -110 -87 -229 -129 -363 -129 -137 0 -235 40 -320 131 -153
163 -150 444 5 600 120 120 347 163 497 94 82 -37 127 -78 187 -169 30 -45 61
-88 70 -95 9 -8 39 -16 66 -19 44 -4 52 -2 80 26 l30 30 0 190 c0 253 -8 272
-108 272 -56 0 -102 -28 -102 -62 0 -12 -5 -18 -12 -15 -194 82 -260 97 -407
96 -64 0 -142 -7 -173 -14z"/>
<path d="M15119 13241 c-153 -33 -248 -89 -265 -156 -8 -33 11 -87 41 -115 33
-31 81 -24 210 28 126 50 207 67 291 59 145 -14 221 -85 240 -225 8 -60 14
-58 -101 -37 -105 19 -291 19 -400 0 -139 -24 -228 -66 -306 -144 -89 -89
-113 -149 -113 -286 -1 -92 2 -106 31 -167 77 -165 251 -252 465 -234 132 11
287 70 391 150 l46 35 11 -53 c7 -34 20 -62 36 -77 24 -22 35 -24 148 -27 195
-5 240 17 234 114 -4 66 -31 84 -136 91 l-81 6 -3 366 c-4 349 -5 369 -26 426
-43 116 -133 205 -245 242 -80 26 -355 28 -468 4z m469 -645 l52 -17 0 -81 c0
-108 -23 -148 -123 -215 -100 -67 -196 -97 -312 -98 -79 0 -97 3 -148 28 -129
64 -153 201 -53 302 43 42 116 77 201 95 66 15 322 5 383 -14z"/>
<path d="M6170 13212 c-27 -21 -38 -98 -20 -131 15 -29 68 -51 124 -51 l44 0
5 -357 c5 -378 8 -407 56 -507 31 -63 115 -138 186 -167 53 -20 76 -23 195
-23 157 0 198 12 325 95 42 27 78 49 80 49 3 0 5 -20 5 -44 0 -78 31 -90 214
-85 97 4 119 7 143 25 63 47 49 153 -24 173 -21 6 -57 11 -80 11 l-43 0 0 495
c0 482 -1 496 -20 515 -19 19 -33 20 -220 20 -186 0 -201 -1 -220 -20 -25 -25
-34 -61 -27 -107 10 -62 23 -68 158 -71 l120 -4 -3 -301 c-3 -292 -4 -304 -27
-354 -28 -62 -103 -136 -168 -165 -65 -29 -183 -35 -256 -14 -75 22 -129 75
-153 148 -15 46 -18 109 -22 453 -3 346 -6 402 -19 418 -14 15 -36 17 -173 17
-137 0 -161 -2 -180 -18z"/>
<path d="M11537 13210 c-32 -25 -42 -69 -27 -115 19 -56 47 -65 215 -65 l145
0 0 -415 0 -415 -215 0 c-173 0 -222 -3 -245 -15 -36 -19 -50 -43 -50 -87 0
-49 21 -81 60 -95 50 -17 1090 -17 1140 0 29 10 37 20 49 55 11 37 11 49 -1
80 -22 59 -37 62 -290 62 l-228 0 0 498 c0 471 -1 500 -18 515 -16 15 -50 17
-264 17 -231 0 -247 -1 -271 -20z"/>
<path d="M12919 13201 c-31 -31 -37 -68 -19 -116 11 -30 63 -55 113 -55 l33 0
199 -442 c231 -514 265 -586 294 -613 16 -13 41 -20 87 -23 74 -5 116 9 143
47 10 14 120 251 244 526 l226 500 58 6 c70 7 101 22 113 55 18 47 12 84 -19
115 l-29 29 -275 0 c-316 0 -315 0 -323 -80 -9 -88 33 -118 165 -119 65 -1 73
-3 69 -19 -12 -43 -354 -800 -359 -794 -9 10 -319 790 -319 802 0 6 23 10 50
10 60 0 114 20 129 48 20 38 13 101 -14 127 l-24 25 -256 0 -257 0 -29 -29z"/>
<path d="M9325 11083 c-4 -10 -58 -155 -120 -323 -62 -168 -118 -318 -124
-333 l-11 -28 42 3 41 3 31 85 32 85 124 0 124 0 32 -85 31 -85 42 -3 c37 -3
42 -1 37 15 -44 131 -254 677 -262 680 -6 2 -15 -4 -19 -14z m66 -300 l45
-128 -48 -3 c-26 -2 -70 -2 -96 0 l-48 3 45 128 c25 70 48 127 51 127 3 0 26
-57 51 -127z"/>
<path d="M15420 10763 c-68 -186 -126 -344 -128 -350 -3 -9 8 -13 36 -13 38 0
41 2 53 38 6 20 20 61 31 90 l19 52 123 0 123 0 32 -90 33 -90 39 0 c21 0 39
3 39 8 0 23 -255 692 -264 692 -6 0 -67 -152 -136 -337z m184 23 c25 -71 46
-130 46 -132 0 -2 -43 -4 -95 -4 -52 0 -95 3 -95 6 0 11 92 265 95 262 1 -2
23 -61 49 -132z"/>
<path d="M6629 11077 c-103 -29 -181 -96 -228 -197 -22 -46 -26 -69 -26 -145
0 -82 3 -97 33 -157 37 -76 82 -120 162 -157 46 -22 69 -26 140 -26 71 1 94 5
140 28 31 14 69 40 85 57 l29 30 -24 25 -23 24 -31 -26 c-75 -64 -197 -83
-281 -44 -112 51 -173 182 -145 314 39 191 251 269 406 151 l47 -36 25 26 26
25 -24 26 c-65 69 -215 109 -311 82z"/>
<path d="M13827 11076 c-50 -19 -76 -42 -98 -91 -24 -51 -24 -99 0 -151 21
-47 53 -72 154 -121 123 -59 157 -112 122 -186 -44 -93 -186 -84 -262 17 l-18
24 -27 -20 c-16 -11 -28 -23 -28 -28 0 -19 64 -82 104 -103 55 -29 164 -30
219 -3 57 28 90 77 95 141 2 30 1 66 -2 80 -12 49 -77 106 -164 146 -103 48
-132 77 -132 134 0 102 127 136 205 55 35 -36 45 -37 73 -7 l22 23 -33 31
c-66 63 -157 86 -230 59z"/>
<path d="M16457 11080 c-260 -66 -350 -409 -155 -597 67 -65 126 -88 228 -88
101 0 166 25 224 84 l36 37 -29 22 -29 21 -18 -21 c-32 -36 -114 -68 -173 -68
-110 0 -188 47 -235 142 -33 66 -36 180 -7 243 72 158 264 206 391 98 l39 -34
32 23 31 23 -46 42 c-71 64 -197 96 -289 73z"/>
<path d="M7420 10741 l0 -341 40 0 40 0 0 140 0 140 38 0 c39 0 39 -1 133
-140 l94 -139 43 -1 c23 0 42 4 42 8 0 4 -40 68 -90 141 -49 74 -90 136 -90
138 0 1 6 3 13 3 25 0 87 52 106 88 27 54 34 95 22 140 -17 60 -51 103 -106
131 -43 21 -67 25 -167 29 l-118 4 0 -341z m247 246 c44 -23 65 -53 70 -99 9
-88 -53 -138 -172 -138 l-65 0 0 131 0 132 69 -6 c38 -3 82 -12 98 -20z"/>
<path d="M8310 10740 l0 -340 175 0 175 0 0 35 0 35 -140 0 -141 0 3 123 3
122 103 3 102 3 0 34 0 35 -105 0 -106 0 3 108 3 107 138 3 137 3 0 34 0 35
-175 0 -175 0 0 -340z"/>
<path d="M9910 11045 l0 -35 110 0 110 0 0 -305 0 -305 40 0 40 0 0 305 0 305
111 0 110 0 -3 33 -3 32 -257 3 -258 2 0 -35z"/>
<path d="M10870 10740 l0 -340 35 0 35 0 0 340 0 340 -35 0 -35 0 0 -340z"/>
<path d="M11390 11068 c0 -7 54 -164 119 -348 78 -223 123 -335 132 -335 9 0
58 117 141 340 70 187 127 344 128 348 0 5 -17 7 -37 5 l-37 -3 -92 -248 c-51
-137 -94 -250 -97 -253 -4 -5 -23 46 -130 351 l-52 150 -38 3 c-25 2 -37 -1
-37 -10z"/>
<path d="M12350 10740 l0 -340 180 0 180 0 0 35 0 35 -140 0 -140 0 0 125 0
125 105 0 105 0 0 35 0 35 -105 0 -105 0 0 110 0 110 135 0 135 0 0 35 0 35
-175 0 -175 0 0 -340z"/>
<path d="M14560 10741 l0 -341 35 0 35 0 0 135 0 135 74 0 c83 0 126 12 175
48 66 49 91 164 52 240 -44 86 -103 113 -258 120 l-113 5 0 -342z m253 240
c42 -26 62 -63 61 -112 -3 -84 -62 -129 -171 -129 l-73 0 0 136 0 137 75 -6
c50 -4 86 -12 108 -26z"/>
<path d="M17247 11074 c-4 -4 -7 -157 -7 -341 l0 -333 180 0 180 0 0 35 0 35
-140 0 -140 0 0 125 0 125 105 0 105 0 0 35 0 35 -105 0 -105 0 0 110 0 110
141 0 140 0 -3 33 -3 32 -171 3 c-93 1 -173 -1 -177 -4z"/>
</g>
</svg>
